<svg width="54" height="58" viewBox="0 0 54 58" fill="none" xmlns="http://www.w3.org/2000/svg">
<path d="M2.28494 22.1456L2.28496 30.7794L2.28497 38.8736L2.28494 44.8094C2.28494 48.1564 2.5979 48.2164 2.5979 51.5942C2.5979 53.0431 3.74091 54.3852 4.61476 55.3283C5.78316 56.5893 7.86966 56.1539 9.48304 56.1539C13.0995 56.1539 16.8974 56.4917 20.6105 56.4917C22.7902 56.4917 24.7161 56.2507 26.835 55.8349C28.886 55.4325 31.2943 55.981 33.2854 55.3095C34.9963 54.7325 37.2537 55.1407 39.0404 55.1407C40.6605 55.1407 42.2893 55.0893 43.9087 55.1407C47.4134 55.2519 49.7623 55.1179 51.5762 51.5942C52.1887 50.4045 51.7327 47.9041 51.7327 46.5279C51.7327 44.7504 51.4197 43.088 51.4197 41.2927V17.7999C51.4197 15.965 50.4809 14.169 50.4809 12.3958C50.4809 10.9771 49.4813 7.57012 48.6031 6.50381C47.6518 5.34878 47.1512 4.19366 45.7864 3.53906C43.8895 2.62918 40.9706 2.11298 38.9013 2.11298C36.0709 2.11298 33.1262 2.7885 30.2949 2.7885L30.1052 2.78849C26.7722 2.78836 23.4122 2.78823 20.1063 3.14502C16.5792 3.52567 14.5 3.53906 10 3.53906C8.45212 4.0611 4.37405 3.13688 3.5 4.64615C0.752927 5.78429 2.28494 11.8642 2.28494 15.6702V22.1456Z" fill="#2867B2" stroke="#2867B2" stroke-width="2.5" stroke-linecap="round" stroke-linejoin="round"/>
<path d="M10 17.6436C10 15.8342 10.5308 15.0227 11.9825 14.3136C13.3405 13.6503 15.5597 14.4325 16.9283 14.6163C18.0815 14.7712 18.5864 15.6551 18.8691 16.8363C19.2941 18.6123 18.6921 21.2369 16.9492 22.1734C14.7508 23.3545 13.0558 22.34 11.5025 20.6709C10.5152 19.61 9.91177 16.7115 11.7008 16.2309C13.8562 15.6518 16.0101 15.959 16.0101 18.8545C16.0101 19.7989 14.49 19.6618 13.9859 19.6618C13.02 19.6618 12.4724 19.1549 12.2642 18.1482C12.1156 17.4295 12.922 17.0382 13.4746 17.0382C14.3671 17.0382 14.2451 17.2012 14.5076 18.0473" stroke="white" stroke-width="2.5" stroke-linecap="round" stroke-linejoin="round"/>
<path d="M14.1611 28.9699C12.8288 28.8392 11.4438 28.8592 10.1045 28.8256C10.1045 29.1046 9.96696 29.5116 9.96696 29.8273C9.96696 30.1878 10.0357 30.5015 10.0357 30.8621C10.0357 32.2547 10.242 33.6552 10.242 35.0588C10.242 35.8739 10.0918 36.7223 10.0395 37.5405C9.97093 38.614 9.96424 39.7548 9.79507 40.8137C9.69751 41.4244 9.76335 42.0481 9.65755 42.6647C9.55928 43.2374 9.55442 43.8438 9.55442 44.425V47.5251C9.55442 48.0982 9.49318 48.6633 9.48566 49.2318C9.47878 49.7512 9.54607 50.3116 9.45128 50.8231C9.38099 51.2024 9.4169 51.6086 9.4169 51.9939C9.4169 52.28 9.34706 52.6968 9.42072 52.975C9.4456 53.069 10.4853 53.0902 10.5705 53.1069C11.0914 53.2092 11.5843 53.2389 12.1137 53.2389C12.9043 53.2389 13.716 53.1395 14.5049 53.0863C15.1368 53.0437 15.7812 53.0827 16.4339 52.9791C17.3419 52.835 18.3372 52.7936 19.2492 52.7936C19.6112 52.7936 19.1804 50.5697 19.1804 50.2336C19.1804 48.8387 18.9054 47.4477 18.9054 46.0575V40.587C18.9054 39.672 18.9741 38.776 18.9741 37.862C18.9741 37.0447 18.8366 36.2328 18.8366 35.4133C18.8366 34.7419 18.6991 34.0368 18.6991 33.3521C18.6991 32.79 18.7165 32.1588 18.596 31.6124C18.4927 31.1441 18.5616 30.5696 18.5616 30.0871V29.4604C18.5616 29.3343 18.5694 29.2393 18.6151 29.1224C18.6341 29.0735 18.7125 28.9977 18.6685 28.974C18.3564 28.8055 17.7869 28.8998 17.4462 28.8998H16.2238C15.54 28.8998 14.8539 29.0378 14.1611 28.9699Z" fill="white" stroke="white" stroke-width="2.5" stroke-linecap="round" stroke-linejoin="round"/>
<path d="M27.5842 34.7732C27.5842 32.1674 27.0435 27.9728 27.5001 25.3858C27.9823 25.3858 28.1842 25.1951 28.6445 25.1951C29.1113 25.1951 29.5405 25.3858 29.9699 25.3858C30.4375 25.3858 31.6721 25.0318 32.0001 25.3858C32.2461 25.6513 32.5001 26.9115 32.9249 26.9115C33.1115 27.3647 32.784 28.7408 33.0001 29.1606C32.519 29.1606 33.0125 32.1025 33.4158 31.319C33.6147 30.9325 34.7423 28.3904 35.0001 28.0813C35.7118 27.2278 35.5505 27.0318 36.5001 26.4625C37.4707 25.8805 39.2501 25.464 40.3076 25.7249C42.4006 26.2412 44.435 26.8709 45.2555 29.306C46.1075 31.8347 46.4925 34.6181 46.4925 37.316C46.4925 39.9782 46.6692 42.6789 46.6692 45.3048C46.6692 46.2485 47.4983 49.225 46.1391 49.225C45.3345 49.225 44.1173 48.9794 43.4099 49.4157C43.1537 49.5737 43.135 46.7876 43.135 46.3643C43.135 44.776 43.4018 42.8905 42.9975 41.3634C42.6427 40.0231 42.8417 38.5386 42.4281 37.1995C42.1065 36.158 41.3603 35.2948 40.661 34.5401C39.8829 33.7004 38.4239 32.9376 37.4016 32.6223C36.2195 32.2578 35.5609 32.75 34.9669 33.9679C33.8301 36.299 33.7692 38.6218 33.7692 41.215C33.7692 42.4955 33.4158 43.7436 33.4158 45.0187V48.1655C33.4158 48.747 33.273 51.1322 32.7089 51.1322C31.8017 51.1322 30.9121 50.9414 29.9699 50.9414C29.4192 50.9414 28.0288 51.3963 27.9377 50.56C27.8877 50.1019 27.5603 49.6636 27.5842 49.225C27.6043 48.8561 27.761 48.4409 27.761 47.9854V44.6479C27.761 43.4483 27.3178 42.2243 27.4861 41.0137C27.6256 40.0095 27.4075 38.735 27.4075 37.6974C27.4075 36.7154 27.5842 35.7687 27.5842 34.7732Z" fill="white" stroke="white" stroke-linecap="round" stroke-linejoin="round"/>
</svg>
