<svg id="Layer_1" data-name="Layer 1" xmlns="http://www.w3.org/2000/svg" viewBox="0 0 50 50"><defs><style>.cls-1{fill:#231f20;}.cls-2{fill:#27aae1;}.cls-3{fill:#009444;}.cls-4{fill:#39b54a;}.cls-5{fill:none;stroke:#231f20;stroke-miterlimit:10;stroke-width:0.5px;}</style></defs><path class="cls-1" d="M12.22,35.05,11,38.25l.89.12a1.1,1.1,0,0,1,.08-.48,2.52,2.52,0,0,1,.27-.42,2.72,2.72,0,0,1,.94-.71,1.34,1.34,0,0,1,.24-.09.79.79,0,0,1,.28-.05h.15l.09,0c.08,0,0,0,0,0s.11.08,0,0l.09.08c.08.07,0-.05,0,0l.06.1c0,.08,0,0,0,0s0,.11,0,0a.41.41,0,0,1,0,.11c0-.14,0,.07,0,0s0,.07-.05.08a.45.45,0,0,0,.16.62.46.46,0,0,0,.61-.16,1.2,1.2,0,0,0-.19-1.49,1.6,1.6,0,0,0-1.67-.31A2.93,2.93,0,0,0,11,38.37a.44.44,0,0,0,.39.44.45.45,0,0,0,.49-.33l1.21-3.19a.47.47,0,0,0-.32-.56.46.46,0,0,0-.55.32Z"/><path class="cls-1" d="M16.51,37.14l1,1.62a.45.45,0,0,0,.78-.45l-1-1.63a.45.45,0,1,0-.77.46Z"/><path class="cls-1" d="M18.87,37.3a20.45,20.45,0,0,0-1.88,4,.46.46,0,0,0,.32.55.45.45,0,0,0,.55-.31,19.19,19.19,0,0,1,1.79-3.81c.3-.49-.48-1-.78-.45Z"/><path class="cls-1" d="M22.39,37.88a.94.94,0,0,0-.77-.41,1.14,1.14,0,0,0-.77.28,1.63,1.63,0,0,0-.44.66,3.39,3.39,0,0,0-.21.61,1.7,1.7,0,0,0,.13,1.29.94.94,0,0,0,.6.41,1.11,1.11,0,0,0,.92-.27,2.1,2.1,0,0,0,.5-.68,2.79,2.79,0,0,1,.18-.34s0,0,0-.06l0,0,0,0,.05,0,0-.05s-.05,0,0,0l-.66-.5a1.82,1.82,0,0,0,.72,1.85.45.45,0,1,0,.45-.77c.1.07,0,0,0,0l-.05-.05-.07-.07c0-.06,0,.05,0,0a.64.64,0,0,1-.08-.14.16.16,0,0,1,0-.07c-.05-.09,0,.09,0,0s0-.1,0-.16,0-.05,0-.08,0,.1,0,0a1.08,1.08,0,0,1,0-.18s0-.06,0-.08v.06a.2.2,0,0,1,0-.07.45.45,0,0,0-.16-.47.44.44,0,0,0-.5,0,1.67,1.67,0,0,0-.48.51c-.1.15-.17.32-.26.47a.75.75,0,0,1-.07.12l0,.06c0,.05.05,0,0,0l-.09.11,0,0,0,0,0,0-.06,0s.1,0,0,0h-.06s.12,0,0,0h0s-.07,0,0,0,0,0,0,0,0,.05,0,0,0,0,0,0,.06.09,0,0a.59.59,0,0,1,0-.08s0,.11,0,0,0,0,0-.06,0-.06,0-.08,0,.08,0,0v0a1.92,1.92,0,0,1,0-.24c0-.11,0,.09,0,0a.36.36,0,0,0,0-.11l.06-.22.09-.23a.14.14,0,0,1,0-.07c0-.06,0,.07,0,0l.07-.14a.57.57,0,0,1,.08-.13c0-.05-.05,0,0,0l.06-.06.05,0q-.07.06,0,0l0,0,.05,0s-.1,0,0,0h.06c.09,0-.1,0,0,0h.06c.08,0-.07,0,0,0l0,0s-.08-.06,0,0l.05,0-.05,0s0,0,0,0a.56.56,0,0,0,.27.21.48.48,0,0,0,.35,0,.45.45,0,0,0,.16-.61Z"/><path class="cls-1" d="M24.76,38.09l.17,2.14.89-.12s0-.12,0-.14,0,.1,0,0V39.8c0-.07,0,0,0,0s0,0,0,0l0-.14a.14.14,0,0,0,0-.07c0-.07,0,0,0,0a1.17,1.17,0,0,0,0-.11l.08-.12s.05-.07,0,0,0,0,0,0l.1-.11.1-.08s-.09,0,0,0l.06,0,.11-.06h0l.13,0h.06c-.07,0-.09,0-.05,0h0l-.39-.22c.07.12.13.24.19.37s0,0,0,0l0,.09a1.18,1.18,0,0,1,.07.2c0,.12.07.25.1.38l0,.19c0-.12,0,0,0,0s0,.07,0,.11a.47.47,0,0,0,.45.45.45.45,0,0,0,.45-.45A4.29,4.29,0,0,0,27,38.3a.44.44,0,0,0-.39-.22,1.8,1.8,0,0,0-1.36.79A1.77,1.77,0,0,0,25,40.35a.45.45,0,0,0,.49.32.44.44,0,0,0,.39-.44l-.17-2.14a.45.45,0,0,0-.9,0Z"/><path class="cls-1" d="M30.19,37.33A9.1,9.1,0,0,0,31.47,39a2.37,2.37,0,0,0,.87.67,1.06,1.06,0,0,0,1-.2,1.27,1.27,0,0,0,.47-.69,1.82,1.82,0,0,0,0-.52c0-.4-.07-.81-.12-1.21s-.06-.51-.1-.76l0-.24s0-.15,0,0,0,0,0,0a.51.51,0,0,0-.5-.5c-.24,0-.53.22-.5.5l.06.4,0,.19,0,.12v.06c0,.09,0-.08,0,0,0,.38.1.76.14,1.13l0,.48v.18a.17.17,0,0,0,0,.07s0-.14,0-.09v.05s0-.07,0,0a.56.56,0,0,1,0,.08s0,0,0,0-.08.07,0,0,0,0-.05,0h0l-.06,0s0,0,0,0-.09,0,0,0-.07,0,0,0-.12-.07-.07,0a3.61,3.61,0,0,1-.35-.33,7.59,7.59,0,0,1-1.2-1.51.5.5,0,0,0-.68-.18.51.51,0,0,0-.18.69Z"/><path class="cls-1" d="M34.82,35.3a4.31,4.31,0,0,0,.47,1.33,2,2,0,0,0,1.13.88A1.64,1.64,0,0,0,38.36,36a4.23,4.23,0,0,0-.25-1.73.5.5,0,0,0-1,.26,6.73,6.73,0,0,1,.21.77s0,.21,0,.11c0,.06,0,.13,0,.19v.2s0,.06,0,.1,0-.09,0,0a.57.57,0,0,1,0,.14s0,.19,0,.06c0,.06-.08.22-.14.25s0-.05,0,0l0,0-.1.1c.05,0,.06-.05,0,0l-.06,0-.06,0c.06,0,.07,0,0,0s-.09,0-.12,0,.08,0,0,0H36.7c.07,0,.08,0,0,0l-.15,0c.12,0,0,0-.06,0l-.14-.09c.1.07,0,0,0-.05l-.11-.12c.08.09,0-.05-.05-.07a1.09,1.09,0,0,1-.08-.15s-.09-.19,0-.09L36,35.73a5.56,5.56,0,0,1-.19-.7.52.52,0,0,0-.62-.35.51.51,0,0,0-.34.62Z"/><path class="cls-2" d="M34.2,25.35a14.9,14.9,0,0,1-.88-1.68,18,18,0,0,1-1.14-3.55,33.74,33.74,0,0,1-.64-4.35,14.28,14.28,0,0,0,4.79-2.67l.14-.1a15.89,15.89,0,0,1,2.79,13.09A12.54,12.54,0,0,1,35.74,32h0l-1.46-.37,0-.09a16.62,16.62,0,0,1-5.07-6.06c.46-.08.92-.15,1.38-.19A17.33,17.33,0,0,1,34.2,25.35Z"/><path class="cls-3" d="M36.47,13l-.14.1a14.28,14.28,0,0,1-4.79,2.67c-.21-2.39-.24-4.8-.25-6.92l0,0A13.08,13.08,0,0,1,36.47,13Z"/><path class="cls-3" d="M34.27,31.63l1.46.37a10.51,10.51,0,0,1-3.3,2.11,12.54,12.54,0,0,1-2.55.71,14.72,14.72,0,0,1-4.2-3.73,10.09,10.09,0,0,1,1.44-.25A22.25,22.25,0,0,1,34.27,31.63Z"/><path class="cls-2" d="M34.29,31.54l0,.09a22.25,22.25,0,0,0-7.15-.79,10.09,10.09,0,0,0-1.44.25,12.12,12.12,0,0,1-1.32-1.93,17,17,0,0,1-1.05-2.45l3.81-.82c.7-.15,1.4-.3,2.1-.41A16.62,16.62,0,0,0,34.29,31.54Z"/><path class="cls-3" d="M33.32,23.67a14.9,14.9,0,0,0,.88,1.68,17.33,17.33,0,0,0-3.6-.06c-.46,0-.92.11-1.38.19a16,16,0,0,1-1.34-3.91l.68-.2c1.22-.39,2.4-.86,3.62-1.25A18,18,0,0,0,33.32,23.67Z"/><path class="cls-2" d="M25.44,11.45a17,17,0,0,1-4.6.71,17.27,17.27,0,0,1-3.93-.35c-.38-.08-.75-.17-1.12-.27l-.37-.1a3.25,3.25,0,0,1,.3-.26A16.79,16.79,0,0,1,20.85,9c2.69-.77,5.52-1.41,8.27-.89a10.39,10.39,0,0,1,2.2.68h0l0,0c0,2.12,0,4.53.25,6.92a33.74,33.74,0,0,0,.64,4.35c-1.22.39-2.4.86-3.62,1.25l-.68.2c-1.29.38-2.61.66-3.93.95l-1.75.38c-.41-1.59-.79-3.21-1.05-4.84a30.82,30.82,0,0,0,5.36-1.39A9.43,9.43,0,0,1,25.44,11.45Z"/><path class="cls-2" d="M29.22,25.48c-.7.11-1.4.26-2.1.41l-3.81.82c-.41-1.15-.72-2.33-1-3.51,0-.1-.05-.2-.08-.3L24,22.52c1.32-.29,2.64-.57,3.93-.95A16,16,0,0,0,29.22,25.48Z"/><path class="cls-2" d="M20.62,33.37a12,12,0,0,1,5.06-2.28,14.72,14.72,0,0,0,4.2,3.73,29.22,29.22,0,0,1-4.68.33c-3.17,0-6.6-.09-9.06-2.09-1.91-1.54-2.88-3.93-3.67-6.25-.18-.53-.35-1.06-.51-1.6,1.58-.34,3.25-.72,4.93-1.11.05.44.09.87.14,1.3a18.25,18.25,0,0,0,.54,3.28.24.24,0,0,1,0,.08A9.58,9.58,0,0,0,20.62,33.37Z"/><path class="cls-4" d="M25.44,11.45a9.43,9.43,0,0,0,1.07,5.22,30.82,30.82,0,0,1-5.36,1.39,23,23,0,0,1-.31-5.9A17,17,0,0,0,25.44,11.45Z"/><path class="cls-4" d="M17.59,28.76a.24.24,0,0,0,0-.08A18.25,18.25,0,0,1,17,25.4c-.05-.43-.09-.86-.14-1.3l5.31-1.2c0,.1.05.2.08.3.31,1.18.62,2.36,1,3.51a17,17,0,0,0,1.05,2.45,12.12,12.12,0,0,0,1.32,1.93,12,12,0,0,0-5.06,2.28A9.58,9.58,0,0,1,17.59,28.76Z"/><path class="cls-2" d="M21.15,18.06c.26,1.63.64,3.25,1.05,4.84l-5.31,1.2c-.19-1.86-.35-3.73-.41-5.6h0A20.65,20.65,0,0,0,21.15,18.06Z"/><path class="cls-2" d="M16.91,11.81a17.27,17.27,0,0,0,3.93.35,23,23,0,0,0,.31,5.9,20.65,20.65,0,0,1-4.66.44h0A31.16,31.16,0,0,1,16.91,11.81Z"/><path class="cls-3" d="M15.79,11.54c.37.1.74.19,1.12.27a31.16,31.16,0,0,0-.43,6.69c.06,1.87.22,3.74.41,5.6-1.68.39-3.35.77-4.93,1.11a14.05,14.05,0,0,1-.69-4.84c.19-1.74,2.59-7.35,4.15-8.93Z"/><path class="cls-5" d="M35.73,32a10.51,10.51,0,0,1-3.3,2.11,12.54,12.54,0,0,1-2.55.71,29.22,29.22,0,0,1-4.68.33c-3.17,0-6.6-.09-9.06-2.09-1.91-1.54-2.88-3.93-3.67-6.25-.18-.53-.35-1.06-.51-1.6a14.05,14.05,0,0,1-.69-4.84"/><path class="cls-5" d="M11.27,20.37c.19-1.74,2.59-7.35,4.15-8.93a3.25,3.25,0,0,1,.3-.26A16.79,16.79,0,0,1,20.85,9c2.69-.77,5.52-1.41,8.27-.89a10.39,10.39,0,0,1,2.2.68h0A13.08,13.08,0,0,1,36.47,13a15.89,15.89,0,0,1,2.79,13.09A12.54,12.54,0,0,1,35.74,32"/><path class="cls-5" d="M17,11.47l-.06.34a31.16,31.16,0,0,0-.43,6.69c.06,1.87.22,3.74.41,5.6.05.44.09.87.14,1.3a18.25,18.25,0,0,0,.54,3.28.24.24,0,0,1,0,.08,9.58,9.58,0,0,0,3,4.61l.2.17"/><path class="cls-5" d="M21.12,10.29a16.87,16.87,0,0,0-.28,1.87,23,23,0,0,0,.31,5.9c.26,1.63.64,3.25,1.05,4.84,0,.1.05.2.08.3.31,1.18.62,2.36,1,3.51a17,17,0,0,0,1.05,2.45,12.12,12.12,0,0,0,1.32,1.93,14.72,14.72,0,0,0,4.2,3.73"/><path class="cls-5" d="M25.8,8.85a10.18,10.18,0,0,0-.36,2.6,9.43,9.43,0,0,0,1.07,5.22,1.43,1.43,0,0,0,.14.2"/><path class="cls-5" d="M27.65,20.28a11.64,11.64,0,0,0,.23,1.29,16,16,0,0,0,1.34,3.91,16.62,16.62,0,0,0,5.07,6.06"/><path class="cls-5" d="M31.29,8.85c0,2.12,0,4.53.25,6.92a33.74,33.74,0,0,0,.64,4.35,18,18,0,0,0,1.14,3.55,14.9,14.9,0,0,0,.88,1.68A16.65,16.65,0,0,0,37,28.92"/><path class="cls-5" d="M14.17,18.24a2.56,2.56,0,0,0,1.09.19"/><path class="cls-5" d="M16.49,18.5a20.65,20.65,0,0,0,4.66-.44,30.82,30.82,0,0,0,5.36-1.39"/><path class="cls-5" d="M29.2,16.25a8.71,8.71,0,0,0,2.34-.48,14.28,14.28,0,0,0,4.79-2.67"/><path class="cls-5" d="M11.9,25.22H12c1.58-.34,3.25-.72,4.93-1.11l5.31-1.2L24,22.52c1.32-.29,2.64-.57,3.93-.95l.68-.2c1.22-.39,2.4-.86,3.62-1.25.41-.14.83-.26,1.25-.37a16,16,0,0,1,5-.47"/><path class="cls-5" d="M14.66,30.71a8.27,8.27,0,0,1,2.93-1.95,7.24,7.24,0,0,1,1.35-.41"/><path class="cls-5" d="M21.19,27.17l2.12-.46,3.81-.82c.7-.15,1.4-.3,2.1-.41.46-.08.92-.15,1.38-.19a17.33,17.33,0,0,1,3.6.06,27,27,0,0,1,4.36.91"/><path class="cls-5" d="M19.91,34a8,8,0,0,1,.71-.6,12,12,0,0,1,5.06-2.28,10.09,10.09,0,0,1,1.44-.25,22.25,22.25,0,0,1,7.15.79l1.46.37h0"/><path class="cls-5" d="M15.79,11.54c.37.1.74.19,1.12.27a17.27,17.27,0,0,0,3.93.35,17,17,0,0,0,4.6-.71,16.27,16.27,0,0,0,4-1.68"/><path class="cls-1" d="M12.6,14.19A1.21,1.21,0,0,1,10.76,13a.38.38,0,0,0-.63-.36c-.56.45-1.32.06-1.72-.42-.12-.15-.68-1.38-.74-1.39A.38.38,0,0,0,8,10.24,2.74,2.74,0,0,0,6.39,9C6,8.86,5.29,8.67,5.5,8.2s1.16-.94,1.44-.28a.38.38,0,0,0,.65,0c.27-.39,1.13-1.45,1.72-1.1a2.55,2.55,0,0,1,.58.72,10,10,0,0,1,.54.89.38.38,0,0,0,.65,0,1.65,1.65,0,0,1,2.86.33.38.38,0,0,0,.59.08c.4-.48.88-1,1.55-.71A3.12,3.12,0,0,1,17.25,9.4c.25.41.9,0,.64-.38a3.38,3.38,0,0,0-1.8-1.69,2.06,2.06,0,0,0-2.09,1l.59.07a2.41,2.41,0,0,0-4.16-.33h.65c-.37-.68-1-2-1.92-2.08s-1.76.9-2.22,1.57h.65C7,6.17,5,7,4.65,8.18c-.19.64.42,1,.91,1.28.64.31,1.46.46,1.79,1.16l.32-.57c-1.47-.1-.26,2.08.12,2.56a2,2,0,0,0,2.87.53L10,12.77A2,2,0,0,0,13,14.84a.38.38,0,0,0-.38-.65Z"/><path class="cls-1" d="M38.8,15.55c.21-.34.6-.93,1.08-.74.32.13.54.52.75.77a1.64,1.64,0,0,0,.86.6,1.23,1.23,0,0,0,.63,0c.2-.07.46-.25.68-.22s.63.48.94.65a1,1,0,0,0,1.09-.1c.06,0,.16-.16.24-.16s.24.14.29.18a1.68,1.68,0,0,1,.59.65c.19.54-.51.7-.89.79a.38.38,0,0,0-.09.69c.22.1.72.29.56.6a1.64,1.64,0,0,1-.84.59,2.35,2.35,0,0,1-1.94-.11.38.38,0,0,0-.45.06,2.29,2.29,0,0,0-.56.92c-.08.17-.16.34-.36.4a1.53,1.53,0,0,1-.78-.17c-.45-.17-.65.55-.2.72a1.53,1.53,0,0,0,1.68-.11c.35-.35.36-.92.75-1.23l-.46.06a3.12,3.12,0,0,0,3.1-.1c.43-.27.91-.68.86-1.23s-.55-.86-1-1.05l-.09.68c.85-.2,1.8-.79,1.37-1.81a2.61,2.61,0,0,0-1-1.07.92.92,0,0,0-1.19.06c-.18.12-.26.14-.44,0s-.3-.25-.46-.37a1.25,1.25,0,0,0-1.16-.25c-.45.14-.71.37-1.09,0a9.74,9.74,0,0,0-.74-.83c-.92-.79-1.87-.06-2.41.79-.26.41.39.78.65.38Z"/><path class="cls-1" d="M12.17,26.38a2.43,2.43,0,0,0-1.37-.69,3.26,3.26,0,0,0-1.88,0A1.5,1.5,0,0,0,8,27.77a.38.38,0,0,0,.59.07.79.79,0,0,0,.28-.49.4.4,0,0,0-.27-.46A2.89,2.89,0,0,0,5,28.31a1.06,1.06,0,0,0,.67,1.52.77.77,0,0,0,.84-1c-.27-.75-1.21-.33-1.68-.05a2,2,0,0,0-1.11,1.64A1.29,1.29,0,0,0,4.9,31.76a2.44,2.44,0,0,0,2-1l-.62-.16c.16.79.21,2.26,1.31,2.29.94,0,1.92-1,2.45-1.71l-.59-.07c.56.76.84,1.94,1.91,2.15.9.17,1.55-.58,2-1.24l-.69-.09a1,1,0,0,0,.94.79A1.29,1.29,0,0,0,14.7,32a.37.37,0,0,0-.64-.37c-.13.2-.58.59-.66.11s-.52-.32-.69-.09c-.34.48-.89,1.18-1.53.75s-.74-1.14-1.11-1.66c-.13-.17-.43-.29-.59-.08A4.9,4.9,0,0,1,8,32c-.5.27-.65,0-.75-.44s-.16-.78-.24-1.16a.38.38,0,0,0-.63-.17,2.85,2.85,0,0,1-.83.68c-.38.18-.9.14-1-.35a1,1,0,0,1,.34-.87,1.88,1.88,0,0,1,.39-.29c.12-.06.45-.14.52-.24s0-.05-.06-.23a.65.65,0,0,1,.16-.6,2,2,0,0,1,.69-.61,2.29,2.29,0,0,1,1.88-.12l-.27-.46-.08.16.59.08c-.41-.67.5-1.11,1-1.12a2.81,2.81,0,0,1,1.92.64c.3.37.83-.16.53-.53Z"/></svg>